<svg viewBox="0 0 24 24" fill="currentColor" xmlns="http://www.w3.org/2000/svg" width="24" height="24" class="------packages-feed-ui-src-features-Activity-Activity__activity-icon--lq3sA"><title>HIIT</title><path d="M19.01 8.4l1.42-1.1-.83-1.07-1.41 1.1a8.9 8.9 0 00-5.98-2.98V3.17h1.82V1.82H9.04v1.35h1.82v1.18c-4.6.35-8.23 4.19-8.23 8.87 0 4.68 3.99 8.9 8.9 8.9s8.9-3.99 8.9-8.9c0-1.78-.53-3.43-1.43-4.82h.01zm-7.48 12.38c-4.17 0-7.55-3.39-7.55-7.55s3.39-7.55 7.55-7.55 7.55 3.39 7.55 7.55-3.39 7.55-7.55 7.55z" fill=""></path><path d="M11.53 6.8c-3.54 0-6.42 2.88-6.42 6.42s2.88 6.42 6.42 6.42 6.42-2.88 6.42-6.42-2.88-6.42-6.42-6.42zm0 11.49c-2.79 0-5.07-2.27-5.07-5.07 0-2.8 2.27-5.07 5.07-5.07 1.6 0 3.02.76 3.95 1.93L11 11.52a1.791 1.791 0 00.53 3.5c.62 0 1.18-.31 1.5-.82l2.63-3.89c.59.83.94 1.83.94 2.92 0 2.79-2.27 5.07-5.07 5.07v-.01zm1.07-5.87l-.7 1.04c-.22.34-.82.16-.82-.24 0-.19.13-.36.32-.42l1.2-.39v.01z" fill=""></path></svg>